<?xml version="1.0" standalone="no"?>
<!DOCTYPE svg PUBLIC "-//W3C//DTD SVG 20010904//EN"
 "http://www.w3.org/TR/2001/REC-SVG-20010904/DTD/svg10.dtd">
<svg version="1.0" xmlns="http://www.w3.org/2000/svg"
 width="1890.000000pt" height="1417.000000pt" viewBox="0 0 1890.000000 1417.000000"
 preserveAspectRatio="xMidYMid meet">
<metadata>
Created by potrace 1.16, written by Peter Selinger 2001-2019
</metadata>
<g transform="translate(0.000000,1417.000000) scale(0.100000,-0.100000)"
fill="#000000" stroke="none">
<path d="M10356 14145 c-14 -14 -31 -25 -38 -25 -8 0 -20 -9 -28 -20 -8 -11
-22 -20 -32 -20 -10 0 -18 -4 -18 -10 0 -5 -9 -10 -20 -10 -11 0 -20 -4 -20
-10 0 -5 -9 -10 -20 -10 -11 0 -20 -4 -20 -10 0 -5 -7 -10 -15 -10 -24 0 -145
-126 -145 -151 0 -11 -13 -34 -30 -49 -16 -15 -30 -33 -30 -40 0 -6 -22 -33
-50 -60 -27 -27 -50 -54 -50 -60 0 -7 -13 -25 -30 -40 -16 -15 -30 -33 -30
-39 0 -14 -126 -141 -140 -141 -15 0 -80 -67 -80 -82 0 -8 -9 -20 -20 -28 -11
-8 -20 -21 -20 -30 0 -9 -9 -22 -20 -30 -11 -8 -20 -22 -20 -32 0 -10 -4 -18
-10 -18 -5 0 -10 -8 -10 -18 0 -10 -9 -24 -20 -32 -11 -8 -20 -22 -20 -32 0
-10 -4 -18 -10 -18 -5 0 -10 -7 -10 -16 0 -9 -13 -29 -30 -44 -16 -15 -30 -35
-30 -44 0 -9 -4 -16 -10 -16 -5 0 -10 -8 -10 -18 0 -10 -9 -24 -20 -32 -11 -8
-20 -22 -20 -32 0 -10 -4 -18 -10 -18 -5 0 -10 -7 -10 -16 0 -9 -13 -29 -30
-44 -16 -15 -30 -34 -30 -42 0 -7 -9 -20 -20 -28 -14 -10 -20 -26 -20 -50 0
-24 -6 -40 -20 -50 -16 -12 -20 -26 -20 -72 0 -32 -4 -58 -10 -58 -5 0 -10 -9
-10 -20 0 -11 -4 -20 -10 -20 -5 0 -10 -13 -10 -30 0 -16 -4 -30 -10 -30 -5 0
-10 -17 -10 -38 0 -26 -6 -42 -20 -52 -11 -8 -20 -26 -20 -40 0 -14 -9 -32
-20 -40 -11 -8 -20 -26 -20 -40 0 -14 -9 -32 -20 -40 -12 -8 -20 -26 -20 -42
0 -15 -4 -28 -10 -28 -5 0 -10 -22 -10 -50 0 -27 -4 -50 -10 -50 -5 0 -10 -9
-10 -20 0 -11 -4 -20 -10 -20 -15 0 -13 -97 3 -103 8 -3 5 -11 -10 -24 -13
-11 -23 -27 -23 -34 0 -8 -9 -21 -20 -29 -18 -13 -20 -26 -20 -111 0 -68 4
-99 13 -103 10 -5 10 -7 0 -12 -7 -3 -13 -14 -13 -25 0 -10 -4 -19 -10 -19 -5
0 -10 -8 -10 -18 0 -10 -9 -24 -20 -32 -19 -14 -20 -26 -20 -242 0 -145 4
-228 10 -228 6 0 10 -22 10 -48 0 -36 5 -51 20 -62 18 -13 20 -26 20 -140 0
-114 2 -127 20 -140 15 -11 20 -26 20 -62 0 -26 5 -48 10 -48 6 0 10 -8 10
-18 0 -10 9 -24 20 -32 12 -8 20 -26 20 -42 0 -15 5 -28 10 -28 6 0 10 -29 10
-66 l0 -65 60 -59 c33 -32 60 -64 60 -70 0 -6 18 -29 40 -50 23 -22 40 -48 40
-60 0 -12 14 -35 30 -50 28 -26 30 -32 30 -104 0 -44 4 -76 10 -76 6 0 10 -17
10 -38 0 -26 6 -42 20 -52 11 -8 20 -22 20 -32 0 -10 5 -18 10 -18 6 0 10 -8
10 -18 0 -10 9 -24 20 -32 18 -13 20 -26 20 -122 0 -65 -4 -108 -10 -108 -5 0
-10 -9 -10 -20 0 -11 -4 -20 -10 -20 -6 0 -10 -53 -10 -140 0 -87 4 -140 10
-140 6 0 10 -9 10 -20 0 -11 5 -20 10 -20 6 0 10 -9 10 -20 0 -11 5 -20 10
-20 6 0 10 -7 10 -16 0 -8 23 -37 50 -64 34 -33 50 -57 50 -74 0 -14 -4 -26
-10 -26 -6 0 -10 -27 -10 -60 0 -33 4 -60 10 -60 6 0 10 -18 10 -40 0 -22 5
-40 10 -40 6 0 10 -18 10 -40 0 -22 5 -40 10 -40 6 0 10 -9 10 -20 0 -11 5
-20 10 -20 6 0 10 -21 10 -46 0 -38 5 -51 30 -74 17 -15 30 -35 30 -44 0 -9 5
-16 10 -16 6 0 10 -36 10 -88 0 -76 3 -89 20 -102 15 -11 20 -26 20 -62 0 -26
5 -48 10 -48 6 0 10 -16 10 -36 0 -40 19 -64 50 -64 24 0 70 -42 70 -65 0 -8
5 -15 10 -15 6 0 10 -9 10 -20 0 -11 5 -20 10 -20 6 0 10 -36 10 -88 0 -76 3
-89 20 -102 14 -10 20 -26 20 -52 0 -21 -4 -38 -10 -38 -6 0 -10 -27 -10 -60
0 -33 4 -60 10 -60 6 0 10 -13 10 -28 0 -16 8 -34 20 -42 12 -8 20 -26 20 -42
0 -15 5 -28 10 -28 6 0 10 -9 10 -20 0 -11 5 -20 10 -20 6 0 10 -9 10 -20 0
-11 5 -20 10 -20 6 0 10 -9 10 -20 0 -11 5 -20 10 -20 6 0 10 -7 10 -16 0 -9
14 -29 30 -44 17 -15 30 -34 30 -42 0 -7 9 -20 20 -28 11 -8 20 -20 20 -28 0
-7 36 -48 80 -92 44 -44 80 -84 80 -90 0 -6 41 -51 90 -100 l90 -89 0 -96 c0
-57 4 -95 10 -95 6 0 10 -43 10 -110 0 -67 4 -110 10 -110 6 0 10 -67 10 -180
0 -113 4 -180 10 -180 6 0 10 -76 10 -208 0 -196 -1 -208 -20 -222 -18 -13
-20 -26 -20 -158 0 -160 -4 -172 -62 -172 -22 0 -39 -7 -48 -20 -15 -21 -70
-28 -70 -10 0 6 -18 10 -40 10 -22 0 -40 -4 -40 -10 0 -5 -13 -10 -30 -10 -16
0 -30 -4 -30 -10 0 -5 -8 -10 -18 -10 -10 0 -24 -9 -32 -20 -8 -11 -22 -20
-32 -20 -10 0 -18 -4 -18 -10 0 -5 -8 -10 -18 -10 -10 0 -24 -9 -32 -20 -8
-11 -26 -20 -40 -20 -14 0 -32 -9 -40 -20 -8 -11 -21 -20 -30 -20 -9 0 -22 -9
-30 -20 -8 -11 -22 -20 -32 -20 -10 0 -18 -4 -18 -10 0 -6 -27 -10 -60 -10
-33 0 -60 -4 -60 -10 0 -5 -13 -10 -30 -10 -16 0 -30 -4 -30 -10 0 -5 -8 -10
-18 -10 -10 0 -24 -9 -32 -20 -11 -15 -26 -20 -62 -20 -26 0 -48 -4 -48 -10 0
-5 -9 -10 -20 -10 -11 0 -20 -4 -20 -10 0 -5 -13 -10 -28 -10 -16 0 -34 -8
-42 -20 -8 -12 -26 -20 -42 -20 -15 0 -28 -4 -28 -10 0 -5 -13 -10 -28 -10
-16 0 -34 -8 -42 -20 -8 -11 -22 -20 -32 -20 -10 0 -18 -4 -18 -10 0 -5 -13
-10 -30 -10 -16 0 -30 -4 -30 -10 0 -5 -9 -10 -20 -10 -11 0 -20 -4 -20 -10 0
-5 -18 -10 -40 -10 -22 0 -40 -4 -40 -10 0 -5 -9 -10 -20 -10 -11 0 -20 -4
-20 -10 0 -5 -18 -10 -40 -10 -22 0 -40 -4 -40 -10 0 -5 -13 -10 -30 -10 -16
0 -30 -4 -30 -10 0 -5 -9 -10 -20 -10 -11 0 -20 -4 -20 -10 0 -5 -18 -10 -40
-10 -22 0 -40 -4 -40 -10 0 -5 -22 -10 -50 -10 -27 0 -50 -4 -50 -10 0 -5 -9
-10 -20 -10 -11 0 -20 -4 -20 -10 0 -5 -18 -10 -40 -10 -22 0 -40 -4 -40 -10
0 -5 -13 -10 -30 -10 -16 0 -30 -4 -30 -10 0 -5 -13 -10 -30 -10 -16 0 -30 -4
-30 -10 0 -5 -18 -10 -40 -10 -22 0 -40 -4 -40 -10 0 -5 -13 -10 -28 -10 -16
0 -34 -8 -42 -20 -8 -11 -22 -20 -32 -20 -10 0 -18 -4 -18 -10 0 -5 -13 -10
-30 -10 -16 0 -30 -4 -30 -10 0 -5 -9 -10 -20 -10 -11 0 -20 -4 -20 -10 0 -5
-12 -10 -26 -10 -17 0 -39 -14 -64 -40 -25 -26 -47 -40 -64 -40 -14 0 -26 -4
-26 -10 0 -5 -13 -10 -30 -10 -16 0 -30 -4 -30 -10 0 -5 -9 -10 -20 -10 -11 0
-20 -4 -20 -10 0 -5 -9 -10 -20 -10 -11 0 -20 -4 -20 -10 0 -5 -9 -10 -20 -10
-11 0 -20 -4 -20 -10 0 -5 -9 -10 -20 -10 -11 0 -20 -4 -20 -10 0 -5 -8 -10
-18 -10 -10 0 -24 -9 -32 -20 -8 -11 -21 -20 -30 -20 -9 0 -22 -9 -30 -20 -8
-11 -21 -20 -30 -20 -9 0 -22 -9 -30 -20 -8 -11 -20 -20 -28 -20 -7 0 -35 -22
-62 -50 -27 -27 -57 -50 -68 -50 -10 0 -58 -40 -108 -90 -49 -49 -94 -90 -100
-90 -5 0 -19 -8 -30 -17 -10 -10 -40 -34 -65 -53 -26 -19 -50 -42 -55 -51 -26
-47 -93 -137 -121 -162 -18 -16 -33 -33 -33 -39 0 -5 -18 -27 -40 -49 -22 -22
-40 -46 -40 -54 0 -8 -4 -15 -10 -15 -5 0 -10 -9 -10 -20 0 -11 -4 -20 -10
-20 -5 0 -10 -9 -10 -20 0 -11 -4 -20 -10 -20 -5 0 -10 -7 -10 -15 0 -9 -9
-25 -20 -37 -11 -12 -20 -30 -20 -41 0 -22 -61 -87 -82 -87 -20 0 -48 -52 -30
-57 14 -5 17 -63 2 -63 -5 0 -10 -13 -10 -30 0 -16 -4 -30 -10 -30 -5 0 -10
-9 -10 -20 0 -11 -4 -20 -8 -20 -5 0 -15 -12 -23 -27 -8 -16 -22 -37 -31 -47
-10 -11 -18 -26 -18 -33 0 -7 -4 -13 -10 -13 -5 0 -10 -17 -10 -38 0 -21 -5
-43 -10 -48 -11 -11 -18 -43 -45 -219 -12 -73 -26 -121 -55 -180 -48 -100 -70
-204 -70 -337 0 -87 -4 -112 -26 -163 -30 -74 -64 -207 -64 -257 0 -20 -5 -49
-11 -65 -6 -15 -15 -107 -19 -203 -8 -171 -17 -246 -46 -381 -10 -49 -14 -142
-14 -348 l0 -281 6460 0 6460 0 0 1393 c-1 1149 -3 1398 -14 1427 -33 83 -69
169 -96 230 -17 36 -35 88 -40 115 -11 51 -25 101 -80 283 -26 84 -38 110 -69
140 -21 20 -62 72 -91 116 -30 43 -71 92 -93 110 -21 17 -49 52 -62 78 -37 70
-114 158 -185 208 -35 25 -70 54 -79 65 -63 79 -173 174 -241 209 -41 21 -97
60 -125 87 -66 64 -153 114 -246 144 -42 13 -105 42 -140 64 -74 46 -191 87
-275 97 -32 4 -86 20 -119 35 -70 31 -192 59 -262 59 -26 0 -82 11 -124 25
-42 13 -117 27 -165 31 -49 3 -116 15 -148 25 -54 17 -63 18 -109 4 -59 -18
-165 -19 -222 -4 -22 6 -65 26 -96 45 -52 31 -63 34 -140 34 -46 0 -100 5
-119 11 -19 6 -65 10 -102 10 -41 -1 -68 2 -68 9 0 5 -9 10 -20 10 -11 0 -20
5 -20 10 0 6 -18 10 -40 10 -22 0 -40 5 -40 10 0 6 -22 10 -48 10 -36 0 -51 5
-62 20 -12 17 -26 20 -95 20 -67 0 -85 -3 -103 -20 -22 -21 -72 -28 -72 -10 0
6 -9 10 -20 10 -11 0 -20 5 -20 10 0 6 -8 10 -18 10 -10 0 -24 9 -32 20 -8 11
-22 20 -32 20 -10 0 -18 5 -18 10 0 13 -167 13 -175 0 -8 -13 -65 -13 -65 0 0
6 -7 10 -16 10 -9 0 -29 14 -44 30 -15 17 -34 30 -42 30 -7 0 -20 9 -28 20 -8
11 -20 20 -28 20 -20 0 -62 47 -62 70 0 13 -24 45 -60 80 -56 55 -60 62 -60
104 0 26 -4 46 -10 46 -6 0 -10 40 -10 100 0 60 -4 100 -10 100 -5 0 -10 21
-10 46 0 38 -5 51 -30 74 -16 15 -30 35 -30 44 0 9 -4 16 -10 16 -5 0 -10 11
-10 25 0 26 -40 75 -60 75 -35 0 -40 26 -40 224 0 124 4 196 10 196 6 0 10 40
10 100 0 60 4 100 10 100 6 0 10 17 10 38 0 26 6 42 20 52 11 8 20 20 20 28 0
7 32 44 70 82 39 38 70 75 70 82 0 8 9 20 20 28 11 8 20 21 20 30 0 9 9 22 20
30 11 8 20 21 20 30 0 9 9 22 20 30 11 8 20 26 20 40 0 14 9 32 20 40 11 8 20
22 20 32 0 10 5 18 10 18 6 0 10 14 10 30 0 17 5 30 10 30 6 0 10 9 10 20 0
11 5 20 10 20 6 0 10 9 10 20 0 11 5 20 10 20 6 0 10 9 10 20 0 11 5 20 10 20
6 0 10 8 10 18 0 10 9 24 20 32 15 11 20 26 20 62 0 26 5 48 10 48 6 0 10 14
10 30 0 17 5 30 10 30 6 0 10 18 10 40 0 22 5 40 10 40 6 0 10 18 10 40 0 22
5 40 10 40 6 0 10 33 10 80 0 47 4 80 10 80 6 0 10 18 10 40 0 22 5 40 10 40
6 0 10 9 10 20 0 11 5 20 10 20 6 0 10 27 10 60 0 33 4 60 10 60 6 0 10 23 10
50 0 28 5 50 10 50 6 0 10 9 10 20 0 11 5 20 10 20 6 0 10 14 10 30 0 17 5 30
10 30 6 0 10 8 10 18 0 10 9 24 20 32 11 8 20 21 20 28 0 8 14 27 30 42 17 15
30 35 30 44 0 9 5 16 10 16 6 0 10 9 10 20 0 11 5 20 10 20 6 0 10 13 10 28 0
16 8 34 20 42 17 12 20 26 20 82 0 39 4 68 10 68 6 0 10 18 10 40 0 22 5 40
10 40 6 0 10 27 10 60 0 33 -4 60 -10 60 -5 0 -10 9 -10 20 0 11 -4 20 -10 20
-5 0 -10 23 -10 50 0 28 5 50 10 50 6 0 10 14 10 30 0 17 5 30 10 30 6 0 10
21 10 46 0 38 5 51 30 74 23 21 30 37 30 64 0 20 5 36 10 36 6 0 10 14 10 30
0 17 5 30 10 30 6 0 10 9 10 20 0 11 5 20 10 20 6 0 10 9 10 20 0 11 5 20 10
20 6 0 10 13 10 28 0 16 8 34 20 42 11 8 20 22 20 32 0 10 5 18 10 18 6 0 10
7 10 15 0 9 54 69 120 135 66 66 120 125 120 132 0 8 9 20 20 28 11 8 20 20
20 28 0 26 28 42 74 42 25 0 46 5 46 10 0 6 9 10 20 10 13 0 20 7 20 20 0 11
5 20 10 20 6 0 10 14 10 30 0 17 5 30 10 30 6 0 10 33 10 80 0 47 -4 80 -10
80 -18 0 -11 35 10 50 17 12 20 26 20 92 0 45 4 78 10 78 6 0 10 23 10 50 0
28 -4 50 -10 50 -5 0 -10 23 -10 50 0 28 -4 50 -10 50 -5 0 -10 18 -10 40 0
22 -4 40 -10 40 -5 0 -10 14 -10 30 0 17 -4 30 -10 30 -5 0 -10 18 -10 40 0
22 -4 40 -10 40 -5 0 -10 9 -10 20 0 11 -4 20 -10 20 -6 0 -10 40 -10 100 0
60 -4 100 -10 100 -6 0 -10 29 -10 68 0 56 3 70 20 82 12 8 20 26 20 42 0 15
5 28 10 28 6 0 10 30 10 70 0 40 -4 70 -10 70 -5 0 -10 9 -10 20 0 11 -4 20
-10 20 -5 0 -10 14 -10 30 0 17 -4 30 -10 30 -5 0 -10 14 -10 30 0 17 -4 30
-10 30 -5 0 -10 23 -10 50 0 28 -4 50 -10 50 -5 0 -10 14 -10 30 0 17 -4 30
-10 30 -5 0 -10 17 -10 38 0 26 -6 42 -20 52 -15 11 -20 26 -20 60 0 34 -5 49
-20 60 -16 12 -20 26 -20 72 0 32 4 58 10 58 6 0 10 63 10 168 0 156 -1 169
-20 182 -19 14 -20 26 -20 210 0 184 -1 196 -20 210 -17 12 -20 26 -20 80 0
54 -3 68 -20 80 -11 8 -20 22 -20 32 0 10 -4 18 -10 18 -5 0 -10 7 -10 16 0 9
-14 29 -30 44 -16 15 -30 38 -30 49 0 25 -101 131 -125 131 -8 0 -15 5 -15 10
0 6 -37 10 -90 10 -53 0 -90 4 -90 10 0 6 -7 10 -16 10 -9 0 -29 14 -44 30
-21 23 -37 30 -64 30 l-36 0 0 48 c0 36 -5 51 -20 62 -17 12 -20 26 -20 82 0
39 -4 68 -10 68 -5 0 -10 16 -10 36 0 30 -9 44 -60 94 -42 42 -60 66 -60 84 0
15 -4 26 -10 26 -5 0 -10 9 -10 19 0 10 -7 22 -16 25 -9 3 -744 6 -1634 6
l-1619 0 -48 -57 c-27 -32 -57 -69 -68 -82 -27 -33 -113 -128 -207 -227 -42
-45 -88 -99 -102 -120 -15 -22 -44 -61 -66 -89 -36 -44 -138 -223 -195 -340
-15 -32 -20 -36 -22 -19 -2 11 10 48 27 82 16 33 30 63 30 66 0 3 12 27 28 53
25 43 52 109 52 126 0 17 -42 -13 -80 -55 -28 -33 -46 -45 -57 -41 -12 5 -15
2 -10 -10 8 -22 -4 -28 -26 -12 -18 13 -17 15 7 54 86 135 -138 -77 -280 -265
-31 -41 -60 -77 -65 -80 -21 -13 -19 5 6 51 14 26 25 56 25 65 0 10 10 25 23
33 19 14 20 16 4 16 -11 1 -16 6 -13 14 2 6 10 30 17 52 18 58 163 230 187
223 5 -2 42 27 83 63 92 82 125 110 443 372 39 32 83 69 97 81 14 13 34 28 45
34 15 9 8 11 -43 12 -46 0 -64 -4 -71 -16 -6 -11 -16 -13 -35 -9 -15 4 -27 11
-27 16 0 5 -110 9 -250 9 l-249 0 -25 -25z m3064 -231 c14 -4 47 -8 74 -9 58
-2 72 -17 82 -84 4 -25 13 -58 20 -73 20 -38 9 -58 -32 -58 -19 0 -34 -4 -34
-9 0 -5 -30 -24 -67 -41 -48 -23 -75 -30 -96 -26 -33 7 -88 -15 -127 -50 -25
-21 -70 -41 -70 -30 0 4 20 31 44 61 25 30 50 71 56 92 13 44 30 204 23 216
-10 16 8 23 54 21 26 -2 59 -6 73 -10z m246 -2 c5 -5 29 -14 54 -21 25 -7 51
-18 57 -23 24 -20 44 -72 38 -100 -4 -18 -2 -28 5 -28 6 0 9 -4 6 -9 -4 -5 4
-20 16 -34 22 -24 53 -157 37 -157 -4 0 -25 28 -47 63 -31 48 -37 66 -30 80
13 25 6 30 -25 16 -21 -10 -31 -9 -49 3 -13 8 -35 18 -49 21 -36 9 -69 87 -69
165 0 27 4 32 23 32 13 0 27 -4 33 -8z m314 -106 c38 -40 65 -57 96 -65 68
-17 162 -111 195 -195 14 -36 24 -68 21 -71 -3 -3 -15 2 -28 10 -12 8 -32 12
-44 10 -16 -3 -24 1 -27 15 -3 11 -9 20 -14 20 -5 0 -9 5 -9 11 0 5 5 7 10 4
15 -9 12 19 -5 41 -13 17 -14 17 -15 2 0 -11 -7 -18 -17 -17 -11 0 -13 3 -5 6
17 7 15 23 -2 23 -23 0 -30 -20 -16 -46 11 -20 16 -22 28 -11 13 10 15 9 10
-11 -4 -12 -3 -20 2 -17 4 3 10 -1 13 -9 8 -21 -71 -8 -102 16 -27 20 -54 61
-66 97 -3 12 -17 33 -31 48 -18 19 -22 32 -17 52 6 23 5 25 -11 12 -21 -17
-33 -7 -16 14 7 9 10 19 6 23 -4 4 -13 -1 -20 -11 -21 -28 -26 -20 -26 37 0
50 6 62 31 65 4 1 30 -23 59 -53z m-1058 -267 c0 -22 -10 -40 -32 -59 -21 -19
-27 -29 -18 -33 7 -2 21 2 30 11 13 11 21 12 31 3 8 -6 27 -12 43 -14 16 -2
45 -11 64 -20 19 -9 73 -29 120 -45 47 -16 112 -44 145 -62 60 -32 108 -59
217 -119 31 -18 67 -34 79 -36 13 -3 27 -9 33 -15 5 -5 18 -10 29 -10 10 0 25
-7 33 -15 9 -8 24 -15 34 -15 18 0 119 -41 242 -99 37 -17 72 -31 78 -31 5 0
10 -4 10 -8 0 -5 15 -16 33 -25 75 -38 167 -94 194 -117 31 -28 103 -114 103
-125 0 -4 11 -21 26 -37 14 -17 23 -37 20 -44 -3 -8 0 -14 7 -14 7 0 4 -5 -6
-11 -13 -8 -22 -7 -33 1 -21 18 -17 -3 6 -33 11 -14 20 -28 20 -32 0 -9 63
-99 73 -103 4 -2 7 -10 7 -17 0 -7 4 -15 9 -17 13 -5 141 -199 141 -213 0 -7
9 -15 21 -18 12 -3 18 -10 14 -17 -5 -8 -11 -7 -23 2 -14 11 -15 10 -8 -7 13
-33 16 -143 5 -172 -7 -20 -6 -28 3 -35 7 -4 9 -8 4 -8 -6 0 -5 -5 2 -12 7 -7
12 -19 12 -27 0 -14 -2 -14 -10 -1 -5 8 -12 12 -15 8 -4 -3 1 -17 9 -30 9 -14
13 -28 9 -32 -11 -11 -12 -166 -1 -172 13 -8 9 -52 -4 -57 -8 -4 -7 -6 3 -6
23 -1 32 -51 10 -52 -14 -1 -14 -2 0 -6 22 -5 41 -77 25 -93 -8 -8 -7 -9 6 -5
25 10 43 -38 26 -65 -10 -15 -10 -22 -1 -31 7 -7 8 -20 4 -33 -6 -14 1 -51 20
-111 16 -49 36 -126 45 -170 21 -108 31 -156 39 -181 6 -19 2 -22 -30 -28 -41
-8 -198 5 -410 34 -77 10 -234 22 -350 25 -272 8 -366 13 -372 19 -10 9 8 25
22 19 9 -3 22 0 30 7 9 7 18 10 22 7 3 -4 12 -2 20 4 7 6 22 9 33 6 10 -3 25
2 31 10 9 10 24 13 55 8 23 -3 45 -1 48 4 10 16 -222 25 -364 13 -254 -21
-340 -36 -480 -83 -63 -22 -127 -48 -142 -59 -15 -11 -32 -20 -38 -20 -6 0 -9
-4 -6 -9 3 -5 -2 -11 -13 -14 -10 -2 -21 -14 -24 -26 -5 -20 -3 -21 31 -15 21
3 67 14 103 25 71 20 139 25 139 9 0 -15 -50 -36 -120 -50 -107 -21 -223 -51
-257 -66 -17 -8 -37 -14 -45 -14 -18 -1 -208 -96 -295 -149 -60 -36 -85 -45
-145 -51 -133 -15 -479 -33 -515 -27 -19 4 -63 24 -97 46 -57 37 -132 74 -266
134 -40 17 -76 24 -130 26 -93 3 -120 9 -120 28 0 12 13 15 63 13 106 -5 108
-4 101 28 -4 15 -11 28 -16 30 -4 2 -8 10 -8 18 0 9 -5 12 -10 9 -6 -4 -28 9
-51 28 -106 91 -275 136 -534 142 -174 4 -245 -6 -245 -36 0 -13 -6 -16 -22
-11 -23 5 -23 5 -4 -16 10 -12 23 -19 27 -16 5 3 9 -6 9 -19 0 -28 30 -60 37
-39 3 6 9 12 14 12 6 0 7 -5 4 -10 -3 -6 5 -14 18 -19 14 -6 28 -14 31 -20 3
-5 41 -12 84 -16 149 -13 244 -33 259 -55 34 -49 50 -57 168 -91 279 -81 389
-126 451 -185 56 -54 70 -78 90 -159 20 -81 15 -244 -11 -335 -8 -30 -19 -84
-25 -120 -33 -215 -97 -398 -186 -532 -52 -77 -157 -177 -239 -227 -163 -99
-598 -139 -935 -87 -206 33 -234 43 -310 120 -142 144 -247 345 -279 536 -5
30 -14 71 -20 90 -5 19 -19 67 -31 105 -28 95 -61 296 -61 370 0 80 22 147 65
199 42 51 122 107 196 136 77 30 308 87 425 104 55 8 107 17 115 20 23 9 269
36 327 36 57 0 79 15 36 24 -16 3 -107 6 -203 6 -96 1 -218 1 -270 2 -81 0
-391 -35 -410 -47 -4 -2 -53 -11 -111 -20 -57 -8 -119 -20 -136 -26 -23 -7
-38 -7 -50 0 -16 10 -16 10 3 11 36 0 60 32 92 125 68 198 169 400 317 635 22
35 110 183 132 223 6 11 9 25 6 31 -4 6 -9 4 -11 -4 -5 -13 -29 -49 -69 -100
-48 -61 -84 -113 -98 -139 -8 -17 -19 -31 -24 -31 -4 0 -16 -16 -27 -35 -18
-35 -37 -44 -49 -25 -6 10 38 79 152 240 25 36 69 108 96 160 67 124 109 189
142 220 l28 25 -6 -38 c-5 -33 -4 -37 8 -27 8 7 15 16 15 21 0 5 17 35 39 67
21 31 49 77 61 102 31 61 116 208 178 307 29 46 77 129 108 185 143 260 267
392 469 498 44 23 84 46 89 51 6 5 16 9 24 9 8 0 31 13 51 28 20 16 79 50 131
77 52 26 130 67 172 91 43 24 81 44 85 44 4 0 28 14 53 31 70 47 131 76 196
93 72 19 227 31 246 20 7 -5 36 -9 63 -10 28 -1 79 -5 115 -10 36 -4 77 -7 92
-6 14 0 31 -4 36 -11 11 -12 200 -15 220 -3 5 3 28 8 52 12 40 7 43 6 36 -12
-6 -15 -5 -16 5 -7 9 9 16 10 26 1 20 -16 28 -2 9 17 -9 9 -13 22 -9 28 4 6
13 -2 22 -21 15 -32 41 -44 41 -18 0 7 11 21 24 30 14 8 30 31 37 50 15 41 22
39 21 -5z m1268 -2813 c265 -42 338 -78 403 -197 42 -74 57 -154 57 -290 -1
-228 -54 -485 -153 -732 -73 -182 -143 -288 -240 -361 -73 -55 -361 -124 -616
-147 -168 -15 -304 0 -530 58 -74 19 -109 34 -158 69 -177 126 -257 256 -363
584 -4 14 -24 64 -43 111 -20 47 -41 115 -47 150 -6 35 -15 82 -20 104 -25
104 -4 254 45 325 72 105 255 181 510 215 66 9 129 20 140 25 19 8 46 15 110
27 17 3 35 9 40 13 9 8 96 30 175 46 157 31 494 31 690 0z m633 -378 c-2 -18
-7 -235 -11 -483 -4 -247 -10 -455 -14 -461 -4 -6 -16 -84 -28 -174 -12 -90
-23 -166 -25 -169 -1 -3 -8 -51 -15 -106 -6 -55 -15 -113 -20 -130 -5 -16 -11
-48 -14 -70 -10 -83 -19 -120 -32 -128 -7 -4 -11 -14 -8 -21 3 -7 -8 -26 -23
-43 -52 -54 -73 -83 -60 -83 8 0 8 -3 1 -8 -6 -4 -13 -15 -17 -24 -3 -10 -13
-18 -21 -18 -9 0 -13 -6 -10 -14 8 -21 -54 -95 -85 -103 -14 -3 -30 -9 -36
-14 -5 -4 -13 -8 -18 -8 -51 -5 -90 -16 -94 -28 -4 -11 -8 -11 -21 -1 -13 11
-15 10 -10 -4 7 -17 -16 -33 -33 -22 -5 3 -9 -7 -9 -21 0 -20 -4 -26 -15 -21
-9 3 -15 0 -15 -9 0 -8 -4 -15 -10 -15 -5 0 -10 -11 -10 -24 0 -13 -5 -26 -10
-28 -20 -6 21 -47 54 -54 27 -5 53 3 125 35 91 41 117 47 137 33 16 -11 24
-41 13 -47 -5 -4 -6 -11 -3 -17 4 -7 2 -8 -4 -4 -7 4 -14 -4 -17 -21 -20 -96
-49 -183 -61 -183 -8 0 -14 -9 -14 -20 0 -12 -7 -34 -15 -51 -9 -16 -13 -34
-10 -39 3 -6 -1 -10 -9 -10 -13 0 -37 -30 -41 -50 -4 -19 -52 -106 -62 -113
-7 -4 -13 -16 -13 -27 0 -10 6 -21 13 -23 7 -3 5 -6 -6 -6 -10 -1 -25 -16 -34
-36 -9 -19 -21 -35 -25 -35 -5 0 -6 -5 -3 -10 3 -6 -1 -17 -9 -26 -18 -18 -21
-44 -6 -44 7 0 7 -7 -1 -21 -9 -18 -13 -19 -21 -8 -7 10 -8 8 -5 -9 4 -15 0
-25 -9 -29 -8 -3 -14 -11 -14 -18 0 -7 -10 -15 -22 -19 -19 -5 -20 -8 -8 -15
12 -9 12 -11 -2 -16 -9 -4 -14 -13 -11 -21 4 -10 0 -12 -12 -7 -15 5 -17 2
-12 -16 4 -18 1 -24 -14 -28 -10 -3 -20 -9 -20 -14 -1 -5 -2 -13 -3 -18 0 -6
-6 -15 -13 -22 -8 -8 -9 -19 -3 -35 6 -15 6 -24 0 -24 -6 0 -10 5 -10 10 0 6
-4 10 -10 10 -5 0 -7 -7 -3 -16 5 -13 2 -15 -17 -9 -19 6 -22 4 -17 -9 4 -10
1 -19 -8 -22 -8 -4 -15 -13 -15 -21 0 -8 -5 -11 -11 -8 -6 4 -13 -2 -16 -14
-6 -23 -23 -29 -23 -8 0 6 -5 4 -11 -6 -5 -9 -7 -23 -2 -30 16 -25 12 -37 -8
-26 -14 7 -18 16 -14 30 4 11 2 19 -4 19 -6 0 -11 -10 -11 -21 0 -16 -5 -20
-20 -16 -13 3 -20 0 -20 -9 0 -15 -15 -19 -23 -6 -2 4 -2 1 0 -7 5 -21 -15
-39 -40 -34 -18 4 -28 -3 -42 -24 -19 -28 -19 -28 -24 -5 -6 21 -9 19 -46 -29
-22 -29 -46 -66 -53 -83 -7 -16 -19 -37 -28 -46 -17 -18 -104 -147 -104 -155
0 -3 -18 -22 -41 -42 -22 -20 -44 -45 -50 -55 -17 -32 9 -20 56 26 25 24 45
41 45 39 0 -2 11 4 25 13 15 10 25 26 25 40 0 13 4 24 10 24 5 0 9 6 7 13 -1
6 7 12 18 12 11 0 20 7 21 15 2 27 16 50 30 50 8 0 13 -5 11 -12 -1 -6 5 -13
13 -15 10 -2 15 5 16 22 2 34 11 55 24 55 5 0 10 -7 10 -15 0 -8 -4 -15 -10
-15 -5 0 -10 -5 -10 -11 0 -6 9 -8 20 -4 15 5 20 2 20 -12 0 -11 6 -6 18 16
16 29 24 34 61 36 37 2 85 19 101 35 7 7 88 50 94 50 4 0 6 -9 6 -19 0 -19
-129 -147 -180 -180 -14 -8 -54 -37 -89 -63 -35 -26 -68 -48 -74 -48 -5 0 -39
-22 -76 -49 -36 -27 -79 -56 -96 -64 -16 -9 -41 -26 -55 -39 -51 -47 -157
-126 -180 -133 -12 -4 -52 -23 -88 -41 -67 -35 -88 -41 -77 -24 4 6 10 8 15 5
9 -6 36 34 32 47 -1 5 1 7 6 7 22 -4 32 3 32 22 0 11 4 18 9 15 5 -3 11 4 14
17 6 20 4 20 -18 -5 -13 -16 -30 -28 -38 -28 -8 0 -30 -14 -48 -30 -19 -17
-68 -46 -109 -66 -41 -19 -83 -39 -94 -45 -10 -6 -62 -26 -115 -45 l-96 -35
-230 -5 c-126 -2 -300 -6 -385 -8 -85 -1 -175 0 -200 3 -25 3 -79 3 -120 -1
-102 -9 -274 22 -352 63 -24 12 -25 12 -32 -13 -5 -22 -6 -22 -20 -3 -18 23
-21 13 -6 -15 6 -11 8 -31 4 -45 l-6 -25 -48 26 c-27 15 -61 38 -77 53 -15 14
-59 49 -96 76 -38 28 -81 60 -96 72 -35 28 -178 115 -261 160 -36 19 -74 43
-86 54 -11 10 -24 19 -28 19 -4 0 -15 8 -24 17 -16 16 -17 15 -20 0 -2 -10 -8
-14 -14 -11 -6 4 -9 1 -6 -7 3 -8 13 -14 24 -14 10 0 20 -8 22 -18 2 -9 8 -15
13 -12 5 4 9 1 9 -4 0 -6 6 -11 13 -11 21 0 69 -51 64 -69 -6 -25 18 -54 40
-48 16 4 15 6 -4 12 -28 9 -22 23 9 19 13 -1 29 -3 36 -3 6 -1 12 -8 12 -17 0
-10 -6 -14 -15 -10 -10 3 -15 -1 -15 -13 0 -11 6 -21 13 -24 9 -3 9 -7 0 -18
-10 -12 -7 -14 15 -13 15 1 29 3 31 3 2 1 -4 12 -13 26 -30 45 -7 47 54 5 120
-85 226 -193 325 -330 45 -62 143 -190 180 -235 25 -29 20 -54 -7 -41 -41 19
-88 60 -88 77 0 5 -4 8 -9 5 -5 -3 -28 5 -52 19 -24 13 -59 32 -77 41 -18 9
-40 26 -50 38 -19 22 -66 54 -94 63 -10 3 -18 12 -18 19 0 8 -6 14 -14 14 -18
0 -86 39 -86 49 0 4 -15 15 -32 25 -40 23 -46 28 -134 116 -45 45 -74 67 -79
60 -22 -35 91 -138 324 -294 106 -71 233 -165 283 -209 80 -69 172 -127 201
-127 6 0 34 -16 63 -35 39 -26 63 -35 94 -35 25 0 39 4 35 10 -3 6 -17 10 -30
10 -17 0 -23 4 -19 14 3 8 1 17 -5 21 -6 3 -11 20 -11 37 0 23 4 29 16 24 9
-3 28 -9 42 -12 15 -4 32 -10 37 -14 29 -21 154 -32 284 -26 120 6 139 5 151
-9 21 -26 -2 -39 -78 -43 -85 -4 -104 -10 -80 -23 31 -18 135 -8 153 14 7 8
48 13 126 15 l116 3 1 -30 c0 -20 -5 -31 -15 -33 -15 -3 -15 -5 2 -21 13 -14
15 -21 6 -30 -9 -9 -14 -8 -21 3 -8 13 -10 13 -10 -2 0 -9 6 -19 13 -21 7 -3
5 -6 -5 -6 -10 -1 -18 -7 -18 -13 0 -9 -3 -8 -9 2 -6 8 -7 18 -4 24 3 5 1 6
-6 2 -6 -4 -18 -3 -25 3 -10 9 -15 7 -20 -5 -4 -10 -2 -21 5 -24 7 -5 8 -16 3
-31 -5 -13 -9 -28 -10 -34 0 -5 -4 -18 -9 -28 -7 -16 -8 -16 -20 -1 -7 10 -19
15 -28 11 -9 -3 -17 1 -20 12 -4 18 -47 25 -47 9 0 -5 0 -12 0 -18 0 -5 11
-12 25 -16 14 -3 22 -10 19 -15 -8 -14 -49 -4 -49 12 0 9 -10 13 -27 11 -15
-1 -30 3 -34 9 -5 9 -2 10 9 6 9 -3 19 -2 23 4 11 19 -4 21 -35 6 -30 -15 -31
-15 -48 14 -18 30 -40 40 -29 14 10 -26 -8 -16 -54 30 -46 46 -100 85 -116 85
-5 -1 3 -11 17 -23 14 -12 66 -83 115 -157 90 -136 164 -220 197 -220 15 0 16
7 11 54 -6 53 -5 56 27 88 18 18 33 36 31 40 -1 3 28 -2 65 -12 57 -17 89 -19
242 -14 97 2 201 9 231 14 72 13 243 98 322 161 20 16 40 29 43 29 13 0 173
141 297 262 26 25 48 54 48 62 0 9 7 16 15 16 17 0 19 9 6 29 -8 12 -12 12
-25 -2 -9 -8 -16 -22 -16 -31 0 -8 -4 -18 -10 -21 -6 -3 -10 5 -10 18 0 14 7
27 15 31 8 3 15 9 14 13 -3 19 3 47 8 36 10 -26 29 -6 38 37 5 27 18 49 26 44
6 -4 6 -10 -1 -19 -8 -9 -6 -14 5 -19 10 -4 15 1 15 14 0 11 4 20 9 20 6 0 6
12 1 30 -5 18 -5 30 1 30 5 0 9 -7 9 -15 0 -8 7 -15 15 -15 8 0 15 -4 15 -10
0 -5 -5 -10 -11 -10 -5 0 -7 -5 -3 -12 5 -8 11 -5 17 10 14 31 29 27 22 -5 -6
-26 -5 -26 8 -10 8 9 20 17 26 17 7 0 27 11 45 25 18 14 38 25 44 25 6 0 17 6
24 13 8 6 40 26 72 42 31 17 66 38 76 48 11 9 29 17 41 17 20 0 21 1 5 24 -13
20 -14 34 -6 77 6 29 17 60 25 69 8 9 15 23 15 31 0 12 2 12 9 -1 6 -8 7 -18
5 -22 -9 -15 7 -88 19 -88 18 0 97 -82 97 -101 0 -24 26 -72 55 -99 19 -18 25
-33 25 -66 0 -24 5 -46 10 -49 6 -3 10 -48 10 -100 0 -52 4 -97 10 -100 6 -3
10 -30 10 -58 1 -40 6 -58 25 -79 13 -16 28 -28 33 -28 11 0 58 -51 65 -71 3
-9 29 -32 59 -53 29 -20 71 -50 93 -66 35 -26 48 -29 112 -30 39 0 75 5 78 10
15 24 73 8 150 -40 69 -44 136 -70 177 -70 23 0 42 -11 74 -44 l44 -43 0 -84
c-1 -49 -7 -101 -16 -124 -8 -22 -21 -59 -28 -82 -8 -24 -39 -81 -71 -127
l-56 -84 7 -60 c3 -34 2 -67 -4 -77 -5 -10 -45 -55 -88 -100 -133 -139 -191
-209 -207 -246 -14 -34 -121 -139 -142 -139 -6 0 -46 -21 -90 -46 -44 -25
-118 -66 -164 -90 -45 -24 -113 -65 -150 -92 -61 -44 -129 -82 -147 -82 -4 0
-30 -11 -58 -24 -28 -13 -71 -34 -96 -45 -25 -12 -65 -32 -90 -46 -25 -13 -72
-37 -105 -53 -98 -46 -185 -93 -190 -102 -3 -5 -20 -12 -38 -15 -58 -13 -147
-64 -157 -90 -8 -21 -16 -25 -54 -25 -51 0 -122 -28 -150 -58 -10 -12 -22 -19
-27 -17 -4 3 -22 -4 -41 -14 -18 -11 -62 -29 -98 -41 -36 -13 -72 -32 -81 -43
-11 -14 -23 -18 -38 -14 -12 3 -42 -3 -66 -14 -24 -11 -95 -33 -157 -48 -139
-36 -146 -39 -158 -62 -8 -14 -17 -17 -40 -12 -20 3 -47 -2 -81 -17 -39 -16
-80 -23 -165 -27 -62 -3 -111 -10 -108 -14 9 -15 -61 -10 -92 6 -26 13 -98 18
-189 15 -16 -1 -52 1 -80 5 -27 4 -61 2 -75 -3 -17 -6 -40 -5 -75 5 -27 8 -88
18 -135 23 -47 4 -104 15 -128 24 -24 9 -73 21 -110 26 -37 5 -91 18 -121 29
-30 11 -95 28 -145 37 -103 18 -198 53 -254 93 -20 15 -51 32 -69 39 -54 18
-158 105 -268 223 -38 41 -92 91 -120 111 -27 21 -66 54 -86 75 -40 43 -112
155 -124 193 -4 14 -23 65 -42 114 -30 77 -34 97 -28 140 4 28 9 169 11 312 5
309 9 298 -90 291 -34 -2 -87 -11 -119 -20 -32 -10 -87 -17 -122 -17 -56 0
-65 2 -65 18 0 10 27 44 61 76 34 32 67 74 75 92 11 26 20 34 39 34 14 0 25 5
25 10 0 6 9 10 19 10 11 0 23 5 26 10 3 6 17 10 30 10 13 0 27 5 30 10 3 6 31
10 61 10 30 0 54 5 54 10 0 6 6 10 13 10 7 0 23 9 35 20 12 11 24 20 28 20 3
0 17 9 31 20 14 11 33 20 42 20 10 0 27 9 39 20 12 11 28 20 37 20 8 0 15 5
15 10 0 6 6 10 13 10 7 0 22 8 33 18 41 37 133 57 149 32 10 -16 71 -12 85 6
8 8 22 20 33 26 21 11 17 -1 -11 -34 -31 -37 7 -16 42 22 l36 40 0 133 c0 105
3 137 16 155 14 21 38 137 35 172 -1 8 -5 87 -9 175 -4 88 -10 165 -14 171 -4
6 -8 88 -8 182 -1 95 -6 174 -11 178 -5 3 -8 35 -8 72 1 56 3 61 9 32 11 -54
14 -10 5 84 -1 10 -9 24 -17 30 -12 9 -17 35 -19 103 -2 50 -1 89 4 86 16 -10
6 25 -13 42 -11 10 -20 24 -20 32 0 7 -4 13 -9 13 -15 0 -61 52 -61 71 0 11
-9 19 -22 21 -15 2 -22 9 -20 19 1 9 -4 19 -13 23 -8 3 -15 15 -15 26 0 11 -7
23 -15 26 -8 4 -13 9 -10 14 2 4 -6 17 -19 29 -24 22 -24 22 -30 3 -7 -20 -8
-20 -31 4 -14 14 -24 28 -24 32 3 20 -3 31 -22 37 -12 4 -18 12 -15 21 3 8 -1
14 -9 14 -18 0 -19 12 -3 28 9 9 7 12 -12 12 -14 0 -40 9 -58 20 -33 20 -33
22 -18 45 20 31 20 51 1 59 -8 3 -14 11 -13 18 2 8 -6 12 -24 10 -26 -3 -28
-1 -29 35 0 30 -2 34 -9 18 -7 -17 -9 -15 -9 12 -1 17 -6 35 -11 38 -6 4 -7
11 -4 17 5 7 1 9 -9 5 -13 -5 -17 -1 -17 16 0 13 -5 28 -12 35 -9 9 -9 15 0
24 20 20 15 138 -8 176 -15 24 -20 50 -20 99 0 80 -38 169 -78 184 -38 15 -82
65 -82 94 0 15 3 24 8 22 4 -3 5 20 4 50 -2 30 -7 52 -10 48 -3 -3 -5 -21 -4
-40 2 -19 -2 -35 -8 -35 -5 0 -10 17 -10 39 0 23 -8 48 -20 64 -16 21 -20 40
-20 110 0 63 -4 86 -14 90 -9 4 -12 15 -9 32 3 15 -1 33 -10 43 -8 9 -22 33
-31 52 -9 19 -25 49 -35 65 -11 17 -20 44 -20 62 -1 17 -5 35 -11 38 -5 3 -10
21 -10 39 0 17 -5 37 -12 44 -9 9 -9 15 0 24 7 7 12 37 12 67 0 59 -13 87 -62
136 -15 14 -37 45 -49 68 -12 23 -28 53 -35 67 -9 15 -14 58 -14 109 0 66 5
93 22 127 12 24 24 44 28 44 3 0 25 -35 47 -77 40 -78 70 -101 66 -53 -1 14
-7 79 -12 145 -13 154 -14 325 -1 401 6 32 13 74 16 93 7 42 23 30 34 -26 67
-320 131 -484 256 -653 57 -77 139 -151 209 -188 44 -23 236 -71 325 -81 242
-29 616 -15 778 29 133 36 325 145 388 218 115 135 208 320 309 612 57 166
110 276 149 312 48 44 25 41 -27 -4 -27 -22 -51 -38 -54 -34 -4 3 2 27 13 53
34 83 106 115 264 117 86 1 98 -1 127 -23 22 -17 38 -42 52 -83 11 -32 16 -58
11 -58 -23 0 -60 25 -56 37 4 8 -2 13 -17 13 -18 0 -19 -2 -7 -10 13 -8 12
-10 -2 -10 -32 0 -19 -18 17 -24 20 -4 33 -11 30 -17 -4 -5 6 -14 20 -19 14
-5 24 -14 20 -19 -3 -5 4 -25 16 -45 11 -19 35 -77 53 -128 63 -178 167 -399
222 -473 13 -17 26 -46 29 -65 9 -52 70 -160 133 -236 31 -38 85 -107 119
-153 35 -47 79 -98 98 -114 42 -34 129 -67 159 -59 l21 6 -21 5 c-49 13 -124
81 -90 81 8 0 16 -7 20 -15 3 -8 12 -12 20 -9 9 3 35 -1 58 -10 66 -24 185
-37 388 -42 102 -2 226 -11 275 -19 154 -24 225 -31 237 -24 10 6 -29 15 -107
25 -11 1 -20 3 -20 4 0 1 -11 3 -25 4 -14 2 -43 6 -65 10 -86 14 -116 17 -300
26 -266 13 -457 53 -543 114 -24 17 -80 76 -125 131 -44 55 -99 119 -121 143
-47 50 -93 122 -78 122 6 0 34 -23 64 -51 109 -104 233 -182 313 -198 185 -36
487 -65 581 -57 32 3 97 8 144 11 47 4 128 15 180 26 52 11 122 24 155 30 33
6 105 32 160 59 81 39 114 62 175 122 41 41 97 106 124 146 27 39 53 69 57 66
5 -3 2 -16 -7 -29 -19 -29 -20 -80 -4 -163 39 -194 -61 -429 -219 -520 -44
-25 -49 -31 -36 -42 12 -10 15 -10 15 3 0 11 13 16 45 19 26 2 45 -1 45 -7 -1
-16 -26 -45 -39 -45 -7 0 -9 -5 -5 -12 4 -7 -3 -4 -16 7 l-23 20 5 -21 c5 -20
2 -22 -46 -21 -28 0 -67 -1 -86 -2 -34 -2 -34 -3 -10 -13 53 -21 210 -27 262
-8 57 20 151 189 179 320 6 30 22 89 36 130 21 62 26 99 28 208 3 109 1 132
-11 132 -8 0 -14 10 -14 24 0 13 -3 26 -7 28 -10 4 -43 66 -43 79 0 5 5 9 10
9 6 0 10 -9 10 -20 0 -14 7 -20 21 -20 14 0 19 -5 16 -15 -4 -8 -2 -17 4 -20
5 -4 7 -11 4 -16 -10 -16 5 -10 26 10 12 11 18 25 14 31 -4 7 -9 44 -12 84 -2
39 -6 86 -9 104 l-5 34 -25 -27 c-13 -14 -24 -32 -24 -40 0 -24 -31 -95 -42
-95 -5 0 -6 -6 -2 -12 5 -10 4 -10 -5 -2 -9 8 -7 23 10 65 38 97 90 330 131
589 25 163 36 212 47 206 4 -3 6 -20 4 -38z"/>
<path d="M10565 10430 c-257 -40 -469 -123 -555 -216 -58 -63 -49 -72 23 -21
110 78 258 144 412 183 134 34 146 35 275 31 118 -4 146 -8 220 -34 218 -78
372 -147 423 -191 15 -14 17 -13 17 1 0 29 -79 98 -147 129 -36 16 -129 49
-206 74 -132 42 -151 45 -272 49 -71 2 -157 0 -190 -5z"/>
<path d="M10580 10274 c-132 -26 -193 -44 -292 -90 -53 -24 -123 -54 -155 -65
-32 -12 -63 -25 -69 -30 -6 -5 -28 -12 -50 -17 -52 -11 -57 -40 -12 -74 67
-51 142 -88 168 -81 23 5 21 2 -14 -36 -41 -42 -222 -169 -263 -184 -13 -5
-23 -13 -23 -18 0 -5 -9 -9 -20 -9 -11 0 -20 -5 -20 -11 0 -12 43 -1 48 12 2
5 11 9 21 9 9 0 26 7 38 15 11 8 39 17 62 21 62 10 55 -11 -26 -76 -7 -6 -17
-10 -22 -10 -6 0 -15 -8 -20 -17 -6 -10 -11 -15 -11 -10 0 10 -62 -54 -83 -87
-29 -44 -3 -29 33 19 19 25 37 45 41 45 4 0 45 22 91 50 46 27 87 50 91 50 9
0 180 103 255 154 30 19 84 46 120 58 72 24 112 26 567 31 204 2 224 0 277
-20 32 -12 64 -20 71 -19 18 2 67 34 67 44 0 11 -129 143 -180 184 -88 71
-248 136 -396 162 -108 19 -194 19 -294 0z m-105 -180 c6 -28 26 -71 44 -97
18 -25 30 -50 27 -55 -8 -13 -78 -5 -136 16 -46 16 -90 48 -90 65 0 15 122
128 133 124 6 -2 16 -26 22 -53z m617 -1 l44 -58 77 -5 c65 -5 84 -11 121 -37
24 -17 53 -34 65 -38 24 -7 27 -20 9 -32 -22 -13 -42 -12 -67 4 -43 28 -85 35
-233 42 -80 3 -149 9 -152 12 -4 3 7 35 22 70 16 35 32 72 35 82 11 30 34 18
79 -40z"/>
<path d="M13335 10443 c-16 -2 -75 -15 -129 -29 -55 -14 -115 -27 -135 -30
-77 -11 -235 -78 -271 -114 l-21 -21 -6 20 c-6 25 -25 28 -21 4 2 -15 -3 -17
-27 -15 -16 2 -36 9 -43 15 -10 8 -12 7 -10 -3 2 -11 -9 -14 -47 -13 -70 3
-82 -3 -60 -27 9 -10 23 -16 30 -14 7 3 16 1 19 -5 4 -6 20 -8 36 -5 18 4 37
0 51 -10 13 -9 32 -16 42 -16 10 0 82 34 160 76 226 120 379 165 562 165 189
-1 435 -59 530 -126 126 -89 165 -113 213 -130 48 -17 54 -18 68 -3 14 14 14
18 1 45 -20 38 -119 109 -193 140 -69 28 -268 78 -369 93 -67 9 -318 11 -380
3z"/>
<path d="M13360 10304 c-121 -22 -311 -75 -335 -93 -5 -5 -41 -25 -80 -46 -97
-52 -179 -118 -223 -177 -30 -40 -41 -48 -59 -44 -84 21 -82 23 -38 -24 61
-64 98 -79 204 -82 49 -1 94 1 98 6 16 16 -89 55 -152 56 -17 0 -41 7 -53 16
-23 16 -22 16 43 64 37 27 91 58 122 70 30 11 74 34 98 50 24 16 69 44 100 61
69 38 74 35 100 -71 25 -105 37 -123 104 -147 47 -18 78 -22 193 -22 107 -1
140 3 151 14 32 32 55 83 67 150 8 39 16 74 20 78 6 7 97 -40 145 -77 20 -14
20 -15 -8 -43 -15 -16 -61 -47 -103 -69 -42 -21 -80 -47 -85 -56 -9 -17 -3
-18 71 -18 93 0 101 -3 170 -68 52 -48 122 -91 150 -92 8 0 29 -9 45 -20 38
-25 48 -25 40 0 -5 14 -2 20 9 20 9 0 16 -5 16 -11 0 -8 5 -7 15 1 13 10 19
10 35 -5 19 -17 20 -17 20 0 0 21 -15 34 -100 82 -61 35 -164 129 -155 142 2
4 27 8 55 9 33 1 76 14 123 36 76 35 103 58 92 76 -3 5 -1 10 5 10 6 0 8 5 5
10 -4 6 -1 18 7 27 11 15 10 16 -12 10 -29 -7 -79 8 -132 40 -20 12 -49 25
-65 29 -15 4 -37 13 -48 20 -11 8 -32 14 -47 14 -14 0 -80 14 -145 31 -236 63
-315 70 -463 43z m84 -139 c22 -20 27 -32 24 -62 -3 -35 -5 -38 -47 -46 -47
-9 -95 -2 -86 13 3 6 -3 10 -14 10 -15 0 -19 6 -19 30 1 17 6 30 11 30 6 0 7
3 4 7 -11 10 45 43 74 43 14 0 38 -11 53 -25z"/>
<path d="M11147 8861 c-30 -28 -59 -51 -65 -51 -6 0 -15 -8 -21 -17 -8 -14
-12 -15 -25 -4 -9 7 -26 11 -39 7 -13 -3 -134 -6 -269 -7 -136 -1 -253 -6
-260 -10 -7 -5 33 -9 92 -10 58 -1 134 -2 170 -4 121 -4 275 -7 285 -5 25 6
26 -2 1 -27 -14 -14 -25 -28 -22 -30 2 -2 28 5 57 16 46 18 59 29 87 73 18 29
42 65 54 80 38 49 11 42 -45 -11z"/>
<path d="M12904 8693 c-14 -33 -43 -188 -50 -262 -4 -42 -59 -94 -85 -80 -9 4
-19 5 -23 2 -3 -3 -6 -1 -6 5 0 6 7 15 16 20 11 6 13 11 5 16 -6 4 -14 1 -17
-8 -3 -8 -19 -18 -34 -21 -18 -4 -27 -11 -24 -19 5 -12 -3 -16 -58 -31 -5 -2
-17 -3 -27 -4 -11 0 -26 -8 -35 -16 -8 -8 -26 -15 -40 -15 -17 0 -26 -5 -26
-16 0 -12 6 -15 23 -10 12 4 62 13 110 21 104 17 115 20 183 52 62 29 77 58
99 183 16 90 20 210 7 210 -4 0 -12 -12 -18 -27z"/>
<path d="M12515 8562 c-84 -17 -204 -93 -294 -186 -90 -95 -116 -105 -296
-122 -54 -6 -79 -19 -52 -30 9 -3 17 -11 17 -16 0 -5 -13 1 -29 14 -15 12 -39
30 -51 38 -13 8 -30 23 -39 34 -31 36 -55 56 -68 56 -7 0 -12 6 -10 13 1 7 -7
11 -18 10 -11 -1 -31 7 -45 17 -28 22 -15 25 40 10 33 -8 89 -18 135 -23 14
-1 21 5 23 19 4 27 -76 83 -177 124 -58 24 -88 30 -148 30 -97 0 -162 -16
-172 -44 -17 -45 18 -83 64 -72 17 4 27 1 34 -11 9 -17 10 -17 16 0 7 17 33
21 73 11 25 -7 30 -24 7 -24 -8 0 -15 5 -15 10 0 18 -29 10 -55 -15 -14 -14
-25 -27 -25 -29 0 -2 22 -2 49 1 102 9 181 -35 324 -183 56 -58 117 -112 136
-120 121 -51 305 -8 465 111 33 25 66 45 73 45 7 0 13 4 13 9 0 16 -70 8 -75
-8 -6 -19 -90 -28 -100 -11 -6 10 7 14 34 11 7 -2 10 2 6 9 -4 7 -16 10 -26 7
-10 -3 -22 -1 -25 4 -3 5 0 8 7 7 6 -2 14 3 17 11 3 10 0 12 -12 8 -9 -4 -16
-2 -16 3 0 6 12 10 27 10 14 0 23 3 19 8 -8 7 -13 8 -42 11 -8 0 -13 5 -9 10
3 6 -2 14 -12 19 -15 9 -12 13 18 31 19 12 51 21 74 21 110 1 335 59 365 95
15 18 -8 39 -68 64 -49 20 -99 24 -157 13z"/>
<path d="M12835 7666 c-33 -8 -89 -17 -125 -21 -36 -4 -90 -13 -120 -20 -62
-16 -367 -48 -448 -48 -38 0 -50 -3 -43 -10 6 -6 61 -10 138 -10 71 1 123 -1
116 -4 -7 -2 -10 -10 -7 -18 4 -10 -16 -14 -83 -19 -178 -13 -380 -14 -473 -1
-175 23 -310 47 -310 56 0 5 -10 9 -21 9 -12 0 -38 4 -58 10 -189 51 -204 53
-406 56 -240 4 -255 2 -255 -34 0 -32 14 -43 129 -94 47 -21 107 -58 135 -82
159 -135 315 -250 325 -241 5 6 -39 55 -50 55 -5 0 -25 17 -46 38 -20 20 -52
48 -69 62 -96 75 -172 145 -167 152 3 6 109 7 252 3 230 -6 317 -12 531 -35
125 -14 265 -13 445 4 88 9 264 18 390 21 127 3 255 9 285 15 36 6 86 5 141
-2 103 -12 159 2 233 58 36 27 46 41 46 64 0 37 -5 37 -240 44 -136 4 -201 2
-245 -8z"/>
<path d="M12815 7077 c-28 -19 -77 -52 -110 -74 -88 -59 -132 -79 -224 -103
l-83 -21 -109 21 c-100 20 -130 21 -356 15 -176 -5 -262 -11 -295 -21 -72 -23
-218 -2 -285 42 -27 17 -33 18 -33 1 0 -13 60 -77 73 -77 3 0 23 -11 43 -25
20 -14 43 -25 50 -25 7 0 37 -11 66 -23 29 -13 67 -29 83 -35 44 -16 723 -22
800 -7 52 10 127 42 214 90 37 20 107 93 177 181 35 45 64 85 64 88 0 14 -29
4 -75 -27z"/>
</g>
</svg>
